<?xml version="1.0" standalone="no"?><!DOCTYPE svg PUBLIC "-//W3C//DTD SVG 1.1//EN" "http://www.w3.org/Graphics/SVG/1.1/DTD/svg11.dtd"><svg t="1581752897651" class="icon" viewBox="0 0 1024 1024" version="1.1" xmlns="http://www.w3.org/2000/svg" p-id="2091" xmlns:xlink="http://www.w3.org/1999/xlink" width="200" height="200"><defs><style type="text/css"></style></defs><path d="M900.010292 236.138995h-802.132999l117.546617-147.839938a78.9333 78.9333 0 0 1 62.293308-30.079988h442.879815c24.31999 0 47.146647 11.093329 62.293307 30.079988l117.119952 147.839938zM1002.666249 961.237359c0 16.831993-26.709322 30.591987-59.349309 30.591988H80.682633c-32.639986 0-59.349309-13.759994-59.349309-30.591988 0-89.087963 140.074608-161.301266 312.853203-161.301266h355.647852c172.757261 0 312.83187 72.213303 312.83187 161.301266z" fill="#47cf73" p-id="2092" data-spm-anchor-id="a313x.7781069.0.i11" class="selected"></path><path d="M990.911587 250.346989l-161.727932-204.010582A121.642616 121.642616 0 0 0 733.333028 0.000427H290.538546a121.642616 121.642616 0 0 0-95.679961 46.14398l-167.893263 210.922579C10.389329 275.882978 0 300.266968 0 327.253624v590.015754A106.858622 106.858622 0 0 0 106.730622 1024h810.538329A106.837289 106.837289 0 0 0 1023.999573 917.269378V327.253624a106.175956 106.175956 0 0 0-33.087986-76.906635z m-762.666349-177.642593A79.167967 79.167967 0 0 1 290.538546 42.667076h442.794482c24.469323 0 47.210647 10.986662 62.421307 30.16532l117.098618 147.690605H110.570621l117.674617-147.818605zM981.332924 917.269378A64.127973 64.127973 0 0 1 917.268951 981.333351H106.730622A64.127973 64.127973 0 0 1 42.666649 917.269378V327.253624c0-15.21066 5.546664-29.013321 14.442661-40.021317 0.341333-0.362667 0.789333-0.533333 1.109332-0.917333l3.861332-4.842665a63.743973 63.743973 0 0 1 44.671982-18.282659h810.538328a63.573307 63.573307 0 0 1 42.431983 16.42666l5.290664 6.655997c0.917333 1.152 2.197332 1.706666 3.285332 2.602666 8.063997 10.751996 13.034661 23.93599 13.034661 38.378651v590.015754z" p-id="2093"></path><path d="M269.418554 577.429519h485.162465a21.333324 21.333324 0 0 0 15.08266-36.415984l-101.994624-101.994625a21.311991 21.311991 0 1 0-30.165321 30.165321l65.57864 65.57864H269.418554a21.333324 21.333324 0 1 0 0 42.666648zM754.581019 667.093482H269.418554a21.333324 21.333324 0 0 0-15.08266 36.415985l101.994624 101.994624a21.269324 21.269324 0 0 0 30.165321 0 21.311991 21.311991 0 0 0 0-30.165321l-65.578639-65.578639h433.663819a21.333324 21.333324 0 1 0 0-42.666649zM396.223835 147.413699h231.551903a21.333324 21.333324 0 1 0 0-42.666649H396.223835a21.333324 21.333324 0 0 0 0 42.666649z" p-id="2094"></path></svg>