<?xml version="1.0" standalone="no"?><!DOCTYPE svg PUBLIC "-//W3C//DTD SVG 1.1//EN" "http://www.w3.org/Graphics/SVG/1.1/DTD/svg11.dtd"><svg t="1581752855686" class="icon" viewBox="0 0 1024 1024" version="1.1" xmlns="http://www.w3.org/2000/svg" p-id="1742" xmlns:xlink="http://www.w3.org/1999/xlink" width="200" height="200"><defs><style type="text/css"></style></defs><path d="M45.077333 431.402667H21.333333V104.661333A83.328 83.328 0 0 1 104.661333 21.333333h326.741334v23.744c0 213.354667-172.970667 386.325333-386.325334 386.325334zM943.509333 543.274667l-53.44-3.925334a33.109333 33.109333 0 0 1-29.162666-23.168 208.448 208.448 0 0 0-22.378667-48.64 33.066667 33.066667 0 0 1 0.192-35.392l27.754667-43.285333c8.448-13.141333 5.269333-31.530667-6.890667-40.170667l-44.181333-31.338666a22.976 22.976 0 0 0-17.749334-3.968c-6.592 1.28-12.330667 5.333333-16.234666 11.392l-27.754667 43.285333a33.024 33.024 0 0 1-34.730667 14.506667 179.370667 179.370667 0 0 0-48.469333-3.605334c-13.994667 0.512-26.282667-6.784-31.957333-19.093333l-20.757334-44.757333a26.026667 26.026667 0 0 0-14.976-13.994667 22.4 22.4 0 0 0-17.834666 1.28l-47.786667 24.576c-13.077333 6.677333-18.517333 24.341333-11.946667 38.549333l20.672 44.458667a33.130667 33.130667 0 0 1-5.205333 35.861333 164.970667 164.970667 0 0 0-15.168 20.352 205.930667 205.930667 0 0 0-13.184 24.021334 32.938667 32.938667 0 0 1-32.384 18.986666l-44.8-3.264a23.402667 23.402667 0 0 0-17.173333 5.866667 28.650667 28.650667 0 0 0-9.642667 20.053333l-3.669333 55.957334c-1.002667 15.573333 9.536 29.098667 23.509333 30.165333l45.802667 3.392a33.066667 33.066667 0 0 1 28.992 22.741333 206.762667 206.762667 0 0 0 21.482666 45.930667 33.066667 33.066667 0 0 1-0.128 35.498667l-27.754666 43.285333c-8.448 13.141333-5.205333 31.573333 7.018666 40.256l44.16 31.338667c6.762667 4.8 13.354667 4.8 17.621334 3.946666 6.549333-1.28 12.309333-5.333333 16.234666-11.456l27.754667-43.285333a33.024 33.024 0 0 1 34.688-14.506667c16.234667 3.456 32.917333 4.693333 49.557333 3.626667l2.048-0.064c12.821333 0 24.533333 7.402667 29.994667 19.114667l22.869333 49.152c3.136 6.805333 8.426667 11.733333 14.933334 13.973333 4.16 1.429333 10.688 2.368 17.898666-1.322667l47.744-24.490666c13.12-6.72 18.624-24.448 12.053334-38.677334l-23.061334-49.6a33.066667 33.066667 0 0 1 5.056-35.669333 184.896 184.896 0 0 0 26.282667-40.832c5.845333-12.373333 18.432-19.776 32.362667-18.922667l54.570666 4.032c6.122667 0.533333 12.096-1.664 16.96-5.909333 5.781333-5.013333 9.237333-12.224 9.770667-20.309333l3.712-55.701334c1.109333-15.68-9.344-29.248-23.274667-30.250666z m-143.104 117.994666c-21.034667 32.768-53.141333 54.784-90.410666 62.016-8.618667 1.685333-17.28 2.517333-25.856 2.517334a134.741333 134.741333 0 0 1-78.250667-25.237334c-62.826667-44.544-79.594667-134.250667-37.397333-200 21.013333-32.746667 53.098667-54.784 90.368-62.016a134.357333 134.357333 0 0 1 104.170666 22.741334c62.762667 44.501333 79.530667 134.229333 37.376 199.978666zM772.544 643.392h0.213333-0.213333z" fill="#47cf73" p-id="1743" data-spm-anchor-id="a313x.7781069.0.i7" class="selected"></path><path d="M330.069333 847.573333H109.482667A109.589333 109.589333 0 0 1 0 738.112V109.482667A109.610667 109.610667 0 0 1 109.482667 0h805.034666A109.610667 109.610667 0 0 1 1024 109.482667v167.296a21.333333 21.333333 0 1 1-42.666667 0V109.482667A66.901333 66.901333 0 0 0 914.517333 42.666667H109.482667A66.901333 66.901333 0 0 0 42.666667 109.482667v628.629333a66.901333 66.901333 0 0 0 66.816 66.816h220.586666a21.333333 21.333333 0 1 1 0 42.645333zM557.930667 1024H260.245333a21.333333 21.333333 0 1 1 0-42.666667h297.706667a21.333333 21.333333 0 1 1-0.021333 42.666667z" p-id="1744"></path><path d="M773.589333 905.728c-8.448 0-16.96-1.408-25.216-4.245333a79.786667 79.786667 0 0 1-46.549333-42.538667l-16.896-36.309333c-11.328 0.917333-23.253333-0.832-34.773333-2.538667l-20.074667 31.317333a78.997333 78.997333 0 0 1-51.669333 35.477334 76.650667 76.650667 0 0 1-59.434667-12.970667l-44.202667-31.338667c-35.818667-25.365333-45.397333-76.544-21.354666-114.026666l20.672-32.213334a261.44 261.44 0 0 1-15.317334-32.618666L426.816 661.333333c-43.648-3.242667-76.736-42.709333-73.792-87.957333l3.648-55.957333a82.773333 82.773333 0 0 1 28.224-57.557334 76.864 76.864 0 0 1 56.896-19.093333l30.528 2.218667a254.016 254.016 0 0 1 21.226667-33.109334l-15.061334-32.384c-18.816-40.682667-2.432-89.941333 36.501334-109.824l47.765333-24.576a76.650667 76.650667 0 0 1 60.458667-4.266666 79.765333 79.765333 0 0 1 46.549333 42.56l14.805333 31.978666c11.306667 0.021333 22.549333 0.853333 33.621334 2.474667l20.074666-31.296a78.933333 78.933333 0 0 1 51.648-35.413333 76.885333 76.885333 0 0 1 59.605334 12.992l44.181333 31.338666c35.754667 25.344 45.269333 76.437333 21.226667 113.941334l-20.693334 32.234666c6.4 11.477333 11.925333 23.381333 16.490667 35.626667l39.317333 2.901333c43.690667 3.136 76.778667 42.666667 73.728 88.149334l-3.712 55.701333a83.264 83.264 0 0 1-28.352 57.728 76.693333 76.693333 0 0 1-56.661333 19.114667l-40.448-2.986667a236.586667 236.586667 0 0 1-18.922667 29.226667l17.493334 37.610666c18.773333 40.64 2.368 89.962667-36.565334 109.973334h-0.021333l-47.744 24.469333a77.333333 77.333333 0 0 1-35.242667 8.576z m-75.264-126.208c8.256 0 15.829333 4.778667 19.328 12.330667l22.869334 49.152c4.501333 9.706667 12.202667 16.832 21.76 20.117333 8.96 3.114667 18.602667 2.389333 27.114666-1.984l47.765334-24.469333c18.858667-9.706667 26.624-33.962667 17.322666-54.058667l-23.082666-49.621333a21.354667 21.354667 0 0 1 3.242666-22.976 183.68 183.68 0 0 0 15.658667-21.141334 195.413333 195.413333 0 0 0 12.416-22.421333 21.226667 21.226667 0 0 1 20.885333-12.202667l54.570667 4.010667a34.773333 34.773333 0 0 0 25.557333-8.746667 40.96 40.96 0 0 0 13.781334-28.394666l3.712-55.701334c1.493333-22.101333-13.866667-41.28-34.218667-42.730666l-53.376-3.946667a21.333333 21.333333 0 0 1-18.794667-14.912 222.378667 222.378667 0 0 0-23.68-51.370667 21.354667 21.354667 0 0 1 0.128-22.848l27.776-43.285333c11.925333-18.581333 7.445333-43.733333-9.984-56.085333l-44.181333-31.338667a34.56 34.56 0 0 0-26.794667-5.909333 36.565333 36.565333 0 0 0-23.872 16.576l-27.776 43.285333a21.290667 21.290667 0 0 1-22.421333 9.344 194.688 194.688 0 0 0-51.605333-3.84 20.736 20.736 0 0 1-20.629334-12.309333l-20.757333-44.757334a37.354667 37.354667 0 0 0-21.76-20.138666 34.24 34.24 0 0 0-27.050667 1.92l-47.765333 24.576c-18.858667 9.621333-26.581333 33.792-17.28 53.909333l20.693333 44.501333c3.562667 7.701333 2.24 16.789333-3.392 23.146667a178.453333 178.453333 0 0 0-16.234666 21.781333c-5.12 7.978667-9.792 16.490667-13.930667 25.344a21.866667 21.866667 0 0 1-20.885333 12.266667l-44.8-3.264a35.072 35.072 0 0 0-25.749334 8.725333 40.32 40.32 0 0 0-13.653333 28.138667l-3.648 55.978667c-1.429333 21.973333 13.973333 41.109333 34.368 42.624l45.802667 3.392a21.333333 21.333333 0 0 1 18.709333 14.677333c5.610667 17.216 13.269333 33.536 22.72 48.554667a21.333333 21.333333 0 0 1-0.085333 22.890666l-27.776 43.264c-11.925333 18.581333-7.381333 43.776 10.112 56.192l44.181333 31.338667c7.893333 5.589333 17.258667 7.722667 26.645333 5.866667a36.586667 36.586667 0 0 0 23.872-16.618667l27.776-43.285333a21.226667 21.226667 0 0 1 22.378667-9.344 197.013333 197.013333 0 0 0 54.037333 3.797333z m148.565334 74.133333h0.213333-0.213333z" p-id="1745"></path><path d="M686.805333 703.125333a123.050667 123.050667 0 0 1-71.509333-23.082666c-57.749333-40.917333-73.152-123.498667-34.304-184.042667 19.264-30.037333 48.64-50.218667 82.730667-56.832a122.581333 122.581333 0 0 1 95.125333 20.778667c57.770667 40.96 73.152 123.541333 34.304 184.042666-19.264 30.037333-48.661333 50.218667-82.752 56.832a121.002667 121.002667 0 0 1-23.594667 2.304z m0.405334-223.573333c-5.098667 0-10.218667 0.490667-15.36 1.493333-22.528 4.373333-42.026667 17.856-54.933334 37.973334-26.709333 41.642667-16.362667 98.261333 23.061334 126.229333a80.768 80.768 0 0 0 62.314666 13.717333c22.528-4.373333 42.048-17.877333 54.954667-37.994666 26.709333-41.621333 16.362667-98.24-23.061333-126.208a80.917333 80.917333 0 0 0-46.976-15.210667z" p-id="1746"></path></svg>