<?xml version="1.0" standalone="no"?><!DOCTYPE svg PUBLIC "-//W3C//DTD SVG 1.1//EN" "http://www.w3.org/Graphics/SVG/1.1/DTD/svg11.dtd"><svg t="1581752871114" class="icon" viewBox="0 0 1024 1024" version="1.1" xmlns="http://www.w3.org/2000/svg" p-id="1919" xmlns:xlink="http://www.w3.org/1999/xlink" width="200" height="200"><defs><style type="text/css"></style></defs><path d="M373.329121 1000.311766H194.826679A173.564733 173.564733 0 0 1 21.283229 826.747033v-169.010122a173.54345 173.54345 0 0 1 173.54345-173.54345H204.318999c189.186623 0 342.574855 153.366949 342.574855 342.574855a173.564733 173.564733 0 0 1-173.564733 173.54345zM705.730593 141.171658H326.697566A367.3911 367.3911 0 0 1 73.256874 39.735789h885.91441A367.305967 367.305967 0 0 1 705.730593 141.171658z" fill="#47cf73" p-id="1920" data-spm-anchor-id="a313x.7781069.0.i9" class="selected"></path><path d="M890.256189 0H131.338807A131.487789 131.487789 0 0 0 0 131.338807v758.917382a131.509072 131.509072 0 0 0 131.338807 131.338806h417.640804a21.283229 21.283229 0 1 0 0-42.566458H131.338807A88.878765 88.878765 0 0 1 42.566458 890.256189V131.338807c0-48.951427 39.820922-88.772348 88.772349-88.772349h758.917382c48.951427 0 88.772348 39.820922 88.772348 88.772349v142.938166a21.283229 21.283229 0 1 0 42.566458 0V131.338807a131.487789 131.487789 0 0 0-131.338806-131.338807z" p-id="1921"></path><path d="M691.577245 219.281109a21.283229 21.283229 0 0 0-21.283229-21.283229H175.288675a21.283229 21.283229 0 0 0 0 42.566458h495.005341a21.283229 21.283229 0 0 0 21.283229-21.283229zM405.573213 472.296136a21.283229 21.283229 0 0 0-21.283229-21.283229h-209.001309a21.283229 21.283229 0 0 0 0 42.566458h209.001309a21.283229 21.283229 0 0 0 21.283229-21.283229zM175.288675 704.027934a21.283229 21.283229 0 1 0 0 42.566458h143.002016a21.283229 21.283229 0 1 0 0-42.566458H175.288675zM1000.311766 647.925342a21.283229 21.283229 0 1 0 0-42.566458h-202.978156l-0.021283-0.297965 146.449899-192.230125a21.304512 21.304512 0 0 0-33.861617-25.795273l-136.297799 178.88554-136.319082-178.88554a21.283229 21.283229 0 0 0-33.861618 25.795273l146.684015 192.52809h-203.212271a21.283229 21.283229 0 1 0 0 42.566458h205.425727v165.519673h-205.425727a21.283229 21.283229 0 1 0 0 42.566458h205.425727v144.27901a21.283229 21.283229 0 1 0 42.566458 0v-144.27901H1000.311766a21.283229 21.283229 0 1 0 0-42.566458h-205.425727V647.925342H1000.311766z" p-id="1922"></path></svg>