<?xml version="1.0" standalone="no"?><!DOCTYPE svg PUBLIC "-//W3C//DTD SVG 1.1//EN" "http://www.w3.org/Graphics/SVG/1.1/DTD/svg11.dtd"><svg t="1581752837219" class="icon" viewBox="0 0 1024 1024" version="1.1" xmlns="http://www.w3.org/2000/svg" p-id="1567" xmlns:xlink="http://www.w3.org/1999/xlink" width="200" height="200"><defs><style type="text/css"></style></defs><path d="M690.261333 75.178667v156.458666a11.221333 11.221333 0 0 1-11.178666 11.178667H321.429333a11.093333 11.093333 0 0 1-11.178666-11.178667V75.178667c0-6.250667 4.906667-11.178667 11.178666-11.178667h357.632c6.058667 0 11.2 4.928 11.2 11.178667zM690.261333 824v156.458667a11.221333 11.221333 0 0 1-11.178666 11.178666H321.429333a11.093333 11.093333 0 0 1-11.178666-11.178666v-156.458667c0-6.250667 4.906667-11.178667 11.178666-11.178667h357.632c6.058667 0 11.2 4.906667 11.2 11.178667z" fill="#47cf73" p-id="1568" data-spm-anchor-id="a313x.7781069.0.i5" class="selected"></path><path d="M689.856 285.248H334.144c-35.285333 0-64-28.714667-64-64V64c0-35.285333 28.714667-64 64-64h355.712c35.285333 0 64 28.714667 64 64v157.226667a64.085333 64.085333 0 0 1-64 64.021333zM334.144 42.666667c-11.754667 0-21.333333 9.578667-21.333333 21.333333v157.226667c0 11.754667 9.578667 21.333333 21.333333 21.333333h355.712c11.776 0 21.333333-9.578667 21.333333-21.333333V64a21.333333 21.333333 0 0 0-21.333333-21.333333H334.144zM826.24 533.333333a21.333333 21.333333 0 1 1 0-42.666666c85.525333 0 155.093333-69.568 155.093333-155.093334v-22.058666c0-85.525333-69.568-155.093333-155.093333-155.093334a21.333333 21.333333 0 1 1 0-42.666666c109.034667 0 197.76 88.725333 197.76 197.76v22.058666c0 109.056-88.704 197.76-197.76 197.76zM197.76 908.224c-109.034667 0-197.76-88.704-197.76-197.76V688.426667C0 579.370667 88.704 490.666667 197.76 490.666667a21.333333 21.333333 0 0 1 0 42.666666C112.234667 533.333333 42.666667 602.901333 42.666667 688.426667v22.058666c0 85.525333 69.568 155.093333 155.093333 155.093334a21.333333 21.333333 0 1 1 0 42.645333zM689.856 654.634667H334.144c-35.285333 0-64-28.714667-64-64v-157.248c0-35.285333 28.714667-64 64-64h355.712c35.285333 0 64 28.714667 64 64v157.248c0 35.285333-28.714667 64-64 64zM334.144 412.032c-11.754667 0-21.333333 9.578667-21.333333 21.333333v157.248c0 11.776 9.578667 21.333333 21.333333 21.333334h355.712a21.333333 21.333333 0 0 0 21.333333-21.333334v-157.248a21.333333 21.333333 0 0 0-21.333333-21.333333H334.144zM689.856 1024H334.144c-35.285333 0-64-28.714667-64-64v-157.226667a64.106667 64.106667 0 0 1 64-64.021333h355.712c35.285333 0 64 28.736 64 64.021333V960c0 35.285333-28.714667 64-64 64zM334.144 781.418667c-11.754667 0-21.333333 9.578667-21.333333 21.354666V960c0 11.776 9.578667 21.333333 21.333333 21.333333h355.712a21.333333 21.333333 0 0 0 21.333333-21.333333v-157.226667c0-11.776-9.557333-21.354667-21.333333-21.354666H334.144z" p-id="1569"></path></svg>